HIERARCHY
ROOT Hips
{
	OFFSET -0.001795 -0.223333 0.028219
	CHANNELS 6 Xposition Yposition Zposition Zrotation Yrotation Xrotation 
	JOINT LeftUpLeg
	{
		OFFSET 0.069520 -0.091406 -0.006815
		CHANNELS 3 Zrotation Yrotation Xrotation
		JOINT LeftLeg
		{
			OFFSET 0.034277 -0.375199 -0.004496
			CHANNELS 3 Zrotation Yrotation Xrotation
			JOINT LeftFoot
			{
				OFFSET -0.013596 -0.397961 -0.043693
				CHANNELS 3 Zrotation Yrotation Xrotation
				JOINT LeftToe
				{
					OFFSET 0.026358 -0.055791 0.119288
					CHANNELS 3 Zrotation Yrotation Xrotation
					End Site
					{
						OFFSET 0.000000 0.000000 0.000000
					}
				}
			}
		}
	}
	JOINT RightUpLeg
	{
		OFFSET -0.067670 -0.090522 -0.004320
		CHANNELS 3 Zrotation Yrotation Xrotation
		JOINT RightLeg
		{
			OFFSET -0.038290 -0.382569 -0.008850
			CHANNELS 3 Zrotation Yrotation Xrotation
			JOINT RightFoot
			{
				OFFSET 0.015774 -0.398415 -0.042312
				CHANNELS 3 Zrotation Yrotation Xrotation
				JOINT RightToe
				{
					OFFSET -0.025372 -0.048144 0.123348
					CHANNELS 3 Zrotation Yrotation Xrotation
					End Site
					{
						OFFSET 0.000000 0.000000 0.000000
					}
				}
			}
		}
	}
	JOINT Spine
	{
		OFFSET -0.002533 0.108963 -0.026696
		CHANNELS 3 Zrotation Yrotation Xrotation
		JOINT Spine1
		{
			OFFSET 0.005487 0.135180 0.001092
			CHANNELS 3 Zrotation Yrotation Xrotation
			JOINT Spine2
			{
				OFFSET 0.001457 0.052922 0.025425
				CHANNELS 3 Zrotation Yrotation Xrotation
				JOINT Neck
				{
					OFFSET -0.002778 0.213870 -0.042857
					CHANNELS 3 Zrotation Yrotation Xrotation
					JOINT Head
					{
						OFFSET 0.005152 0.064970 0.051349
						CHANNELS 3 Zrotation Yrotation Xrotation
						End Site
						{
							OFFSET 0.000000 0.000000 0.000000
						}
					}
				}
				JOINT LeftShoulder
				{
					OFFSET 0.078845 0.121749 -0.034090
					CHANNELS 3 Zrotation Yrotation Xrotation
					JOINT LeftArm
					{
						OFFSET 0.090977 0.030469 -0.008868
						CHANNELS 3 Zrotation Yrotation Xrotation
						JOINT LeftForeArm
						{
							OFFSET 0.259612 -0.012772 -0.027456
							CHANNELS 3 Zrotation Yrotation Xrotation
							JOINT LeftHand
							{
								OFFSET 0.249234 0.008986 -0.001171
								CHANNELS 3 Zrotation Yrotation Xrotation
								End Site
								{
									OFFSET 0.000000 0.000000 0.000000
								}
							}
						}
					}
				}
				JOINT RightShoulder
				{
					OFFSET -0.081759 0.118833 -0.038615
					CHANNELS 3 Zrotation Yrotation Xrotation
					JOINT RightArm
					{
						OFFSET -0.096012 0.032551 -0.009143
						CHANNELS 3 Zrotation Yrotation Xrotation
						JOINT RightForeArm
						{
							OFFSET -0.253742 -0.013329 -0.021401
							CHANNELS 3 Zrotation Yrotation Xrotation
							JOINT RightHand
							{
								OFFSET -0.255298 0.007772 -0.005559
								CHANNELS 3 Zrotation Yrotation Xrotation
								End Site
								{
									OFFSET 0.000000 0.000000 0.000000
								}
							}
						}
					}
				}
			}
		}
	}
}
MOTION
Frames: 10
Frame Time: 0.050000
0.000000 0.868752 0.000000 0.365526 -8.301543 14.291080 7.130753 0.221783 -46.023402 -14.702023 8.110987 43.745654 12.509700 25.957249 -3.522303 0.000000 0.000000 0.000000 -4.898097 3.138094 -34.525976 18.370119 -8.921934 70.620683 -10.854120 -24.934208 15.862484 0.000000 0.000000 0.000000 -7.942547 2.037513 29.121337 5.162568 -0.437945 -25.738923 2.060053 1.950254 28.905413 -0.838429 2.088484 -38.123697 0.000000 0.000000 0.000000 -25.343558 -4.328502 2.090750 -39.187287 -14.660914 -2.665710 -23.842946 -63.490263 19.561219 0.000000 0.000000 0.000000 16.855267 10.962291 4.535927 45.831162 21.083394 0.858551 5.872726 59.260259 6.513294 0.000000 0.000000 0.000000 
-0.013450 0.868090 0.048825 -1.247753 -7.649031 14.385909 9.011992 0.749519 -43.917062 -14.867775 8.394388 45.038509 10.662045 22.222954 -4.297779 0.000000 0.000000 0.000000 -7.364770 3.028780 -40.469975 21.123090 -12.076982 71.384238 -10.784743 -25.296945 10.852444 0.000000 0.000000 0.000000 -5.844212 1.345240 30.602077 7.104622 -0.682547 -27.129967 -0.212543 1.597722 30.153154 -2.939373 3.062758 -40.339822 0.000000 0.000000 0.000000 -27.082429 -2.953179 1.287984 -36.425105 -15.776832 -2.501084 -30.715885 -65.707984 25.025449 0.000000 0.000000 0.000000 19.159166 10.892794 4.561460 46.117248 19.920925 0.293824 12.839068 64.388215 11.718831 0.000000 0.000000 0.000000 
-0.028202 0.860487 0.097980 -2.254215 -6.845309 12.493586 9.725419 0.674111 -39.740817 -13.996346 8.270330 47.779240 10.305416 21.878155 -10.218390 0.000000 0.000000 0.000000 -10.455720 2.308736 -45.845573 24.873156 -14.986528 67.337069 -10.492128 -25.273808 6.694166 0.000000 0.000000 0.000000 -4.725495 0.931258 32.978174 6.825133 -0.823392 -25.487338 0.820901 0.402016 28.752851 -2.407102 2.697076 -38.928523 0.000000 0.000000 0.000000 -29.734056 -4.573680 2.685756 -32.965483 -18.314848 -1.910442 -26.554308 -67.664466 22.950776 0.000000 0.000000 0.000000 17.961783 10.381304 3.990951 47.173569 18.285393 -0.092768 12.738708 65.725596 11.690919 0.000000 0.000000 0.000000 
-0.044770 0.850388 0.148243 -3.575308 -4.627338 12.392302 11.111148 0.643174 -36.638829 -11.845531 6.803258 50.028563 9.689444 20.424220 -12.976686 0.000000 0.000000 0.000000 -11.941278 1.550049 -52.346295 25.549994 -14.480104 58.979173 -12.388951 -29.465006 4.667908 0.000000 0.000000 0.000000 -3.215799 0.165790 35.070665 8.104687 -1.022102 -25.897301 -0.440501 -2.188187 28.731941 -5.339191 3.729122 -39.324855 0.000000 0.000000 0.000000 -29.498983 -5.022165 3.598905 -31.437716 -19.048641 -1.914733 -21.255075 -72.041951 20.963136 0.000000 0.000000 0.000000 19.670700 11.059494 3.959343 44.521782 18.616882 -0.061406 12.322354 69.097526 11.704259 0.000000 0.000000 0.000000 
-0.063564 0.835011 0.198980 -4.622222 -4.409664 12.031697 13.736869 1.222926 -33.164785 -10.067604 6.097317 53.020571 9.431227 19.739000 -16.330007 0.000000 0.000000 0.000000 -12.233316 1.506231 -56.519086 23.330201 -10.333403 46.224035 -12.055334 -30.247394 -0.337465 0.000000 0.000000 0.000000 -2.641565 -0.079000 36.471598 8.982957 -1.162288 -26.336113 -1.057417 -3.451406 29.075567 -6.626038 4.098402 -40.333183 0.000000 0.000000 0.000000 -32.051988 -5.139522 4.395014 -27.594830 -21.098393 -1.837620 -11.799886 -76.019138 14.993903 0.000000 0.000000 0.000000 20.601587 11.557930 3.869491 44.063170 18.520519 -0.066199 14.833918 70.771717 13.521830 0.000000 0.000000 0.000000 
-0.084533 0.816144 0.251452 -5.286256 -5.070559 13.104166 15.585995 1.547949 -29.796432 -8.655971 5.730608 54.882268 9.018323 18.591566 -18.634764 0.000000 0.000000 0.000000 -11.427837 2.276086 -59.710246 16.784576 -5.037756 32.339974 -9.229600 -23.957609 1.153243 0.000000 0.000000 0.000000 -2.334780 -0.105852 36.839577 11.559608 -1.678299 -26.052184 -2.930203 -2.818105 28.248838 -8.783003 5.007774 -41.811649 0.000000 0.000000 0.000000 -30.796746 -4.289942 3.508861 -26.739266 -21.345281 -1.658761 -7.437135 -80.081732 12.266038 0.000000 0.000000 0.000000 22.573047 12.916791 4.683703 41.574805 19.722423 0.355481 8.771061 72.099827 9.432969 0.000000 0.000000 0.000000 
-0.109005 0.795815 0.306923 -4.833424 -4.635881 15.024246 17.013853 1.720949 -28.945655 -7.426697 5.313140 58.688835 10.025198 21.570041 -16.091671 0.000000 0.000000 0.000000 -10.712508 2.685108 -62.837931 12.562620 -3.100553 27.676070 -7.369337 -19.717752 1.701949 0.000000 0.000000 0.000000 -1.384879 -0.515260 35.061403 10.188935 -1.553664 -24.600093 -2.650028 -4.274197 26.846985 -9.604226 5.124401 -41.527575 0.000000 0.000000 0.000000 -30.204509 -4.958038 4.436696 -24.543553 -21.434689 -1.697136 5.094925 -82.723611 1.809656 0.000000 0.000000 0.000000 20.984679 14.763727 5.321327 40.517768 21.786789 1.106884 5.874270 73.943447 7.174691 0.000000 0.000000 0.000000 
-0.135525 0.773927 0.364562 -4.158425 -2.372492 15.446566 19.164762 2.035353 -30.385815 -6.764661 4.878696 67.475116 9.558747 19.805613 -10.712899 0.000000 0.000000 0.000000 -10.829304 1.863178 -66.555172 14.260086 -4.756871 36.442737 -8.492581 -22.038111 2.619274 0.000000 0.000000 0.000000 -0.112560 -1.322161 36.771958 9.883226 -1.288608 -26.099009 -2.215822 -4.452698 25.957479 -11.438543 5.893175 -42.619183 0.000000 0.000000 0.000000 -30.211161 -6.482850 5.142379 -21.378272 -22.038292 -1.595120 22.390743 -85.051198 -14.500397 0.000000 0.000000 0.000000 19.965987 15.150735 5.826208 36.222904 24.635051 1.474962 -0.817705 78.980153 2.595562 0.000000 0.000000 0.000000 
-0.161781 0.756697 0.420891 -4.107083 -0.581341 15.675773 22.664047 2.771131 -31.864533 -8.730680 6.888595 75.920691 8.249036 16.840480 -4.620431 0.000000 0.000000 0.000000 -10.417085 1.413578 -70.553440 15.500712 -7.028073 48.396332 -9.129976 -23.165338 1.634938 0.000000 0.000000 0.000000 0.729190 -1.952226 38.064397 9.047275 -1.118840 -26.073756 -1.394560 -3.218665 25.263992 -10.820014 5.914027 -41.402940 0.000000 0.000000 0.000000 -28.546429 -8.282191 5.414551 -20.468752 -23.068184 -1.257906 55.583849 -85.313745 -45.873128 0.000000 0.000000 0.000000 17.429899 16.768524 7.201506 32.610799 28.464052 1.903994 -23.210106 81.270121 -15.762360 0.000000 0.000000 0.000000 
-0.184762 0.749917 0.473670 -3.211488 0.514612 16.616243 24.339647 3.469299 -35.673510 -11.936465 10.762215 82.477464 8.295089 17.274641 0.524588 0.000000 0.000000 0.000000 -9.420514 1.568332 -73.842306 15.088901 -8.133014 57.180552 -9.130500 -23.062072 0.237158 0.000000 0.000000 0.000000 0.116784 -1.905035 39.100822 8.989653 -0.975494 -27.001978 -0.944398 -2.138868 24.950795 -11.371826 6.355667 -40.421597 0.000000 0.000000 0.000000 -27.255890 -9.007779 5.202717 -20.213192 -23.449774 -1.107984 67.272813 -83.477730 -55.646868 0.000000 0.000000 0.000000 16.634420 18.078141 8.333126 27.694631 30.314985 1.440677 -49.411010 81.127755 -37.967314 0.000000 0.000000 0.000000 
